<?xml version="1.0" encoding="UTF-8" standalone="no"?>
<svg width="702px" height="243px" viewBox="0 0 702 243" version="1.1" xmlns="http://www.w3.org/2000/svg" xmlns:xlink="http://www.w3.org/1999/xlink" xmlns:sketch="http://www.bohemiancoding.com/sketch/ns">
    <!-- Generator: Sketch 3.4.3 (16044) - http://www.bohemiancoding.com/sketch -->
    <title>phocus_sprite</title>
    <desc>Created with Sketch.</desc>
    <defs>
        <path id="path-1" d="M0,0 L28.9950286,0 L28.9950286,23.9163763 L0,23.9163763 L0,0 Z"></path>
    </defs>
    <g id="Page-1" stroke="none" stroke-width="1" fill="none" fill-rule="evenodd" sketch:type="MSPage">
        <g id="phocus_sprite" sketch:type="MSArtboardGroup">
            <g id="Rectangle-1-+-Oval-26-Copy" sketch:type="MSLayerGroup">
                <rect id="Rectangle-1" sketch:type="MSShapeGroup" x="0" y="0" width="44" height="44"></rect>
                <rect id="Rectangle-1-Copy-6" sketch:type="MSShapeGroup" x="0" y="44" width="44" height="44"></rect>
                <rect id="Rectangle-1-Copy-7" sketch:type="MSShapeGroup" x="88" y="44" width="44" height="44"></rect>
                <rect id="Rectangle-1-Copy-17" sketch:type="MSShapeGroup" x="88" y="88" width="44" height="44"></rect>
                <rect id="Rectangle-1-Copy-9" sketch:type="MSShapeGroup" x="132" y="44" width="44" height="44"></rect>
                <rect id="Rectangle-1-Copy-18" sketch:type="MSShapeGroup" x="132" y="88" width="44" height="44"></rect>
                <rect id="Rectangle-1-Copy-19" sketch:type="MSShapeGroup" x="176" y="88" width="44" height="44"></rect>
                <rect id="Rectangle-1-Copy-10" sketch:type="MSShapeGroup" x="176" y="44" width="44" height="44"></rect>
                <rect id="Rectangle-1-Copy-8" sketch:type="MSShapeGroup" x="44" y="44" width="44" height="44"></rect>
                <ellipse id="Oval-26-Copy" fill="#FFFFFF" sketch:type="MSShapeGroup" cx="21.585" cy="21.585" rx="4.58500004" ry="4.58500004"></ellipse>
                <path d="M17,61 L27,61 L27,71" id="Rectangle-115" stroke="#535A77" stroke-width="2" sketch:type="MSShapeGroup" transform="translate(22.000000, 66.000000) rotate(-225.000000) translate(-22.000000, -66.000000) "></path>
                <g id="Fill-1" transform="translate(96.000000, 52.000000)" fill="#535A77" sketch:type="MSShapeGroup">
                    <path d="M2.43486192,26.1704196 C2.48881614,26.2244533 2.56088754,26.2784075 2.63287948,26.3324412 L3.62336456,26.9448494 C3.65967837,26.9628871 3.71363259,26.9988831 3.74970802,27.0168413 C5.24453396,27.6832832 6.9194192,28.0253641 8.59462228,28.0253641 C11.4763657,28.0253641 14.0520242,27.0168413 15.8712112,25.1976544 L25.2187999,15.8497478 C28.1188194,12.9500461 28.839295,7.97902678 26.9659949,3.76416115 C26.9480367,3.71020693 26.9120407,3.65617325 26.8760447,3.60213956 L26.2455988,2.64772991 C26.2096028,2.59369623 26.1555691,2.53966255 26.1195732,2.48539048 L24.4443701,0.810425779 C23.9223094,0.288047205 23.2198715,0 22.4993959,0 C21.8330335,0 21.1846293,0.270088952 20.7162049,0.738433843 L15.8532529,5.60138582 C14.826454,6.62818471 14.86245,8.30306995 15.9072866,9.34790656 L17.8165032,11.2571232 L11.3143441,17.7589644 L9.36905209,15.8137518 C8.9007072,15.2916911 8.2342653,15.0212843 7.51386917,15.0212843 C6.82938955,15.0212843 6.18098536,15.2916911 5.67688288,15.7777559 L0.813613057,20.6410257 C0.327548297,21.1270905 0.039183246,21.8114906 0.00318727796,22.5139285 C-0.0328086901,23.2526802 0.237518646,23.9731558 0.741621121,24.4771788 L2.43486192,26.1704196 Z M2.34483227,22.1719271 L7.20778425,17.3088956 C7.38784355,17.1285979 7.6762086,17.1465562 7.87422616,17.3448916 L10.5759103,20.0465757 C10.9899831,20.4606486 11.6743833,20.4606486 12.1067322,20.0465757 L20.1218344,12.031553 C20.319852,11.8335354 20.4458776,11.5451704 20.4458776,11.2751609 C20.4458776,11.0047541 20.3378102,10.7167069 20.1218344,10.5186893 L17.4561462,7.81700519 C17.2581287,7.61866979 17.2220533,7.29462662 17.4021126,7.11456732 L22.2650645,2.2512975 C22.3370565,2.17930556 22.4091279,2.14330959 22.5171158,2.14330959 C22.661497,2.14330959 22.8235185,2.21530153 22.9315064,2.32328943 L24.516362,3.90854233 L25.0387406,4.70093039 C26.7500191,8.6635064 25.5611986,12.4456258 23.7059363,14.2828505 L14.3580297,23.666753 C12.9351957,25.089587 10.8999535,25.8640168 8.59462228,25.8640168 C7.24378022,25.8640168 5.89293815,25.5940073 4.70411767,25.0716288 L3.87565418,24.5672084 L2.27252249,22.9643151 C2.16445512,22.8563272 2.16445512,22.6943056 2.16445512,22.6223137 C2.18249284,22.4419366 2.25448477,22.279915 2.34483227,22.1719271 L2.34483227,22.1719271 Z"></path>
                </g>
                <g id="mail2" transform="translate(140.000000, 54.000000)">
                    <mask id="mask-2" sketch:name="Clip 2" fill="white">
                        <use xlink:href="#path-1"></use>
                    </mask>
                    <g id="Clip-2"></g>
                    <path d="M28.9226114,1.13744948 C28.9226114,0.511860627 28.4154429,0 27.7956714,0 L1.12702286,0 C0.507168571,0 0,0.511860627 0,1.13744948 L0,22.7456446 C0,23.3711498 0.507168571,23.8830941 1.12702286,23.8830941 L27.7956714,23.8830941 C28.4154429,23.8830941 28.9226114,23.3711498 28.9226114,22.7456446 L28.9226114,1.13744948 Z M2.25363143,21.6081951 L2.25363143,8.1314007 L13.5785457,17.9689756 C13.7853571,18.1584669 14.0293714,18.2345645 14.2921943,18.2345645 C14.5553486,18.2345645 14.8368971,18.1398188 15.0625171,17.9689756 L26.66898,8.16961672 L26.66898,21.6081951 L2.25363143,21.6081951 Z M26.66898,2.27448084 L26.66898,5.21243206 C26.4813086,5.23141463 26.5751029,5.25064808 26.5563771,5.25064808 L14.3110029,15.6186481 L2.29116571,5.19344948 C2.27244,5.17455052 2.25363143,5.15556794 2.25363143,5.13666899 L2.25363143,2.27448084 L26.66898,2.27448084 Z" id="Fill-1" fill="#535A77" sketch:type="MSShapeGroup" mask="url(#mask-2)"></path>
                </g>
                <g id="Rectangle-1-Copy-11-+-Page-1" transform="translate(220.000000, 44.000000)" sketch:type="MSShapeGroup">
                    <rect id="Rectangle-1-Copy-11" x="0" y="0" width="44" height="44"></rect>
                    <rect id="Rectangle-1-Copy-20" x="0" y="44" width="44" height="44"></rect>
                    <path d="M27.5051743,18 L19.8097264,25.6954479 L17,22.8857215" id="Page-1" stroke="#5AA30A" stroke-width="2" stroke-linecap="round"></path>
                </g>
            </g>
            <g id="Rectangle-1-+-Oval-26-Copy-2" sketch:type="MSLayerGroup" transform="translate(44.000000, 0.000000)">
                <rect id="Rectangle-1" sketch:type="MSShapeGroup" x="0" y="0" width="44" height="44"></rect>
                <ellipse id="Oval-26-Copy" opacity="0.54" fill="#FFFFFF" sketch:type="MSShapeGroup" cx="21.585" cy="21.585" rx="4.58500004" ry="4.58500004"></ellipse>
            </g>
            <g id="Rectangle-1-+-Oval-26-Copy-3" sketch:type="MSLayerGroup" transform="translate(88.000000, 0.000000)">
                <rect id="Rectangle-1" sketch:type="MSShapeGroup" x="0" y="0" width="44" height="44"></rect>
            </g>
            <g id="Rectangle-1-+-Oval-26-Copy-4" sketch:type="MSLayerGroup" transform="translate(132.000000, 0.000000)">
                <rect id="Rectangle-1" sketch:type="MSShapeGroup" x="0" y="0" width="44" height="44"></rect>
            </g>
            <g id="Line-+-Rectangle-115" sketch:type="MSLayerGroup" transform="translate(101.000000, 14.000000)" stroke="#FFFFFF" stroke-width="2">
                <path d="M4.5,8 L17.158989,8" id="Line" stroke-linecap="square" sketch:type="MSShapeGroup"></path>
                <path d="M3,3 L13,3 L13,13" id="Rectangle-115" sketch:type="MSShapeGroup" transform="translate(8.000000, 8.000000) rotate(-135.000000) translate(-8.000000, -8.000000) "></path>
            </g>
            <g id="Line-+-Line-Copy-2" sketch:type="MSLayerGroup" transform="translate(154.485281, 22.485281) rotate(-315.000000) translate(-154.485281, -22.485281) translate(148.485281, 16.485281)" stroke="#535A77" stroke-width="2" stroke-linecap="square">
                <path d="M6,0.272727273 L6,11.7272727" id="Line" sketch:type="MSShapeGroup"></path>
                <path d="M11.7272727,6 L0.272727273,6" id="Line" sketch:type="MSShapeGroup"></path>
            </g>
            <g id="Rectangle-1-+-Oval-26-Copy-4-+-Triangle-1-+-Rectangle-582" sketch:type="MSLayerGroup" transform="translate(176.000000, 0.000000)">
                <g id="Rectangle-1-+-Oval-26-Copy-4" sketch:type="MSShapeGroup">
                    <rect id="Rectangle-1" x="0" y="0" width="44" height="44"></rect>
                </g>
                <g id="Triangle-1-+-Rectangle-582" transform="translate(17.000000, 17.000000)" fill="#535A77" sketch:type="MSShapeGroup">
                    <polygon id="Triangle-1" points="5 0 10 4.44444444 0 4.44444444 "></polygon>
                    <rect id="Rectangle-582" x="4" y="4.44444444" width="2" height="5.55555556"></rect>
                </g>
            </g>
            <rect id="Rectangle-1" sketch:type="MSShapeGroup" x="220" y="0" width="44" height="44"></rect>
            <rect id="Rectangle-1-Copy" sketch:type="MSShapeGroup" x="264" y="0" width="44" height="44"></rect>
            <rect id="Rectangle-1-Copy-2" sketch:type="MSShapeGroup" x="308" y="0" width="44" height="44"></rect>
            <rect id="Rectangle-1-Copy-3" sketch:type="MSShapeGroup" x="352" y="0" width="44" height="44"></rect>
            <rect id="Rectangle-1-Copy-15" sketch:type="MSShapeGroup" x="396" y="44" width="44" height="44"></rect>
            <rect id="Rectangle-1-Copy-4" sketch:type="MSShapeGroup" x="396" y="0" width="44" height="44"></rect>
            <rect id="Rectangle-1-Copy-12" sketch:type="MSShapeGroup" x="264" y="44" width="44" height="44"></rect>
            <rect id="Rectangle-1-Copy-13" sketch:type="MSShapeGroup" x="308" y="44" width="44" height="44"></rect>
            <rect id="Rectangle-1-Copy-14" sketch:type="MSShapeGroup" x="352" y="44" width="44" height="44"></rect>
            <rect id="Rectangle-1-Copy-5" sketch:type="MSShapeGroup" x="440" y="0" width="44" height="44"></rect>
            <path d="M259.236852,11.300285 C257.976796,11.860234 256.622696,12.2385411 255.202493,12.4085744 C256.652681,11.537239 257.768263,10.1592181 258.290958,8.51487997 C256.935495,9.32134316 255.432833,9.90792392 253.832037,10.2234074 C252.549493,8.85426371 250.723809,8 248.703904,8 C244.82424,8 241.679212,11.1521034 241.679212,15.0389691 C241.679212,15.5914066 241.741908,16.1274554 241.860486,16.6423354 C236.023613,16.3500693 230.848458,13.5482755 227.383134,9.28788279 C226.779343,10.3292514 226.43247,11.537239 226.43247,12.8271704 C226.43247,15.2684117 227.672081,17.4242155 229.556372,18.6854665 C228.405353,18.6499576 227.322482,18.3310597 226.375226,17.8045711 L226.375226,17.8933435 C226.375226,21.3028868 228.797204,24.148384 232.009017,24.7950568 C231.4209,24.9548471 230.798028,25.0436196 230.158119,25.0436196 C229.706979,25.0436196 229.265381,24.9978676 228.837411,24.915241 C229.730831,27.7122547 232.324542,29.7458257 235.398015,29.8045521 C232.9958,31.6919901 229.967305,32.8173511 226.673714,32.8173511 C226.108086,32.8173511 225.549273,32.782525 225,32.7190186 C228.108228,34.7143492 231.800485,35.8799992 235.76874,35.8799992 C248.687548,35.8799992 255.753128,25.1569751 255.753128,15.8543096 C255.753128,15.5504348 255.74495,15.24656 255.733365,14.9426852 C257.103139,13.9518486 258.293002,12.7124492 259.236852,11.300285" id="Fill-1" fill="#FEFEFE" sketch:type="MSShapeGroup"></path>
            <path d="M127.236852,99.300285 C125.976796,99.860234 124.622696,100.238541 123.202493,100.408574 C124.652681,99.537239 125.768263,98.1592181 126.290958,96.51488 C124.935495,97.3213432 123.432833,97.9079239 121.832037,98.2234074 C120.549493,96.8542637 118.723809,96 116.703904,96 C112.82424,96 109.679212,99.1521034 109.679212,103.038969 C109.679212,103.591407 109.741908,104.127455 109.860486,104.642335 C104.023613,104.350069 98.8484576,101.548276 95.383134,97.2878828 C94.7793431,98.3292514 94.43247,99.537239 94.43247,100.82717 C94.43247,103.268412 95.6720814,105.424215 97.5563723,106.685467 C96.4053534,106.649958 95.3224823,106.33106 94.3752258,105.804571 L94.3752258,105.893343 C94.3752258,109.302887 96.7972041,112.148384 100.009017,112.795057 C99.4209004,112.954847 98.7980281,113.04362 98.1581188,113.04362 C97.7069793,113.04362 97.2653806,112.997868 96.8374114,112.915241 C97.7308311,115.712255 100.324542,117.745826 103.398015,117.804552 C100.9958,119.69199 97.9673045,120.817351 94.6737138,120.817351 C94.1080858,120.817351 93.5492725,120.782525 93,120.719019 C96.1082283,122.714349 99.8004845,123.879999 103.76874,123.879999 C116.687548,123.879999 123.753128,113.156975 123.753128,103.85431 C123.753128,103.550435 123.74495,103.24656 123.733365,102.942685 C125.103139,101.951849 126.293002,100.712449 127.236852,99.300285" id="Fill-1-Copy" fill="#A3B3CE" sketch:type="MSShapeGroup"></path>
            <g id="Page-1" sketch:type="MSLayerGroup" transform="translate(190.000000, 6.000000)">
                <path d="M146.631344,16.4346152 L147.315431,11.1477497 L142.060898,11.1477497 L142.060898,7.7720769 C142.060898,6.2417412 142.489377,5.19864448 144.692325,5.19864448 L147.499858,5.19680237 L147.499858,0.468557804 C147.014987,0.404083835 145.348679,0.259938462 143.405962,0.259938462 C139.354591,0.259938462 136.582649,2.72422566 136.582649,7.24937723 L136.582649,11.1477497 L132.000185,11.1477497 L132.000185,16.4346152 L136.582649,16.4346152 L136.582649,29.9999382 L142.060898,29.9999382 L142.060898,16.4346152 L146.631344,16.4346152 Z" id="Fill-1" fill="#FEFEFE" sketch:type="MSShapeGroup"></path>
                <path d="M14.6311584,105.174677 L15.3152461,99.8878112 L10.0607125,99.8878112 L10.0607125,96.5121384 C10.0607125,94.9818027 10.4891918,93.938706 12.6921393,93.938706 L15.4996725,93.9368639 L15.4996725,89.2086193 C15.0148022,89.1441454 13.3484938,89 11.405777,89 C7.35440579,89 4.58246364,91.4642872 4.58246364,95.9894388 L4.58246364,99.8878112 L0,99.8878112 L0,105.174677 L4.58246364,105.174677 L4.58246364,118.74 L10.0607125,118.74 L10.0607125,105.174677 L14.6311584,105.174677 Z" id="Fill-1-Copy-2" fill="#A3B3CE" sketch:type="MSShapeGroup"></path>
            </g>
            <g id="Group-3-+-Fill-4" sketch:type="MSLayerGroup" transform="translate(271.000000, 6.000000)" fill="#FEFEFE">
                <g id="Group-3" sketch:type="MSShapeGroup">
                    <path d="M10.3335789,13.2326172 C11.3741053,13.1930655 12.2398947,12.8130483 12.9330526,12.0936345 C13.2683158,11.5842724 13.4830526,11.0615483 13.5783158,10.5254621 C13.6351579,9.9883069 13.6651579,9.5388069 13.6651579,9.17161724 C13.6651579,7.59061724 13.2662105,5.99465172 12.4698947,4.38799655 C12.0951579,3.61727241 11.6035789,2.98872069 10.9941053,2.50554828 C10.3704211,2.04963448 9.65463158,1.80697931 8.84621053,1.78025517 C7.77515789,1.80697931 6.88568421,2.24472069 6.17515789,3.09454828 C5.57673684,3.9833931 5.28989474,4.97699655 5.31778947,6.07535862 C5.31778947,7.52647931 5.73410526,9.03478966 6.57094737,10.6045655 C6.97673684,11.3362724 7.49726316,11.9568069 8.13884211,12.4667034 C8.77884211,12.977669 9.51042105,13.2326172 10.3335789,13.2326172 L10.3335789,13.2326172 Z M15.8414737,24.9933759 C15.8414737,23.9741172 15.5146316,23.0879448 14.8609474,22.3316517 C14.1688421,21.6143759 13.0872632,20.7335483 11.6156842,19.6881 C11.3630526,19.6619103 11.0677895,19.6496172 10.7283158,19.6496172 C10.5272632,19.6244966 10.0109474,19.6496172 9.18094737,19.7271172 C8.36410526,19.8452379 7.52621053,20.0339103 6.67042105,20.2952724 C6.46936842,20.3738414 6.18726316,20.4919621 5.82305263,20.648031 C5.45778947,20.8174621 5.08726316,21.0595828 4.70884211,21.3727897 C4.34357895,21.6982897 4.03568421,22.1028931 3.78515789,22.5860655 C3.49410526,23.0954276 3.35147368,23.7090138 3.35147368,24.4262897 C3.35147368,25.8357207 3.97831579,26.9971517 5.23621053,27.9105828 C6.43252632,28.8234793 8.06673684,29.2932897 10.1430526,29.3200138 C12.0046316,29.2932897 13.4267368,28.8758586 14.4067368,28.0666517 C15.3635789,27.2697379 15.8414737,26.2462034 15.8414737,24.9933759 L15.8414737,24.9933759 Z M14.3162105,1.89837586 C14.5651579,2.05497931 14.8430526,2.28266897 15.1530526,2.58304828 C15.4504211,2.89625517 15.7414737,3.28268621 16.0267368,3.73806552 C16.3004211,4.16885862 16.5425263,4.67608276 16.7541053,5.26454828 C16.9277895,5.85087586 17.0141053,6.53661724 17.0141053,7.31963448 C16.9914737,8.75418621 16.6793684,9.90225517 16.0777895,10.7638414 C15.7841053,11.1812724 15.4725263,11.5661 15.1430526,11.9188586 C14.7772632,12.2694793 14.3893684,12.6297207 13.9783158,12.9947724 C13.7425263,13.2422379 13.5251579,13.5228414 13.3256842,13.8365828 C13.0904211,14.1626172 12.9725263,14.5399621 12.9725263,14.9707552 C12.9725263,15.3908586 13.0930526,15.7350655 13.3346316,16.0087207 C13.5393684,16.2700828 13.7388421,16.4988414 13.9325263,16.6944621 L15.2730526,17.8093931 C16.1056842,18.5026172 16.8356842,19.2631862 17.4635789,20.0985828 C18.0546316,20.9473414 18.3625263,22.0558586 18.3888421,23.424669 C18.3888421,25.3696517 17.542,27.0906862 15.8514737,28.5931172 C14.1004211,30.1463241 11.5698947,30.9475138 8.26410526,30.9998931 C5.49673684,30.9737034 3.43094737,30.3745483 2.06568421,29.204031 C0.689894737,28.1088759 -0.000105263158,26.8004621 -0.000105263158,25.2771862 C-0.000105263158,24.5358586 0.223052632,23.7068759 0.673052632,22.7955828 C1.10673684,21.8848241 1.89410526,21.0836345 3.03410526,20.3936172 C4.31252632,19.6528241 5.65673684,19.1562897 7.06515789,18.9088241 C8.46042105,18.7014448 9.61831579,18.5833241 10.5404211,18.557669 C10.2551579,18.1765828 10.0014737,17.7703759 9.77831579,17.3374448 C9.51831579,16.9178759 9.38936842,16.4122552 9.38936842,15.8232552 C9.38936842,15.4694276 9.43831579,15.1722552 9.53673684,14.9370828 C9.62357895,14.6869448 9.70515789,14.4592552 9.77831579,14.248669 C9.33042105,14.3005138 8.90621053,14.3267034 8.50989474,14.3267034 C6.40568421,14.3005138 4.80305263,13.6281345 3.69989474,12.311169 C2.54463158,11.0834621 1.96726316,9.65532414 1.96726316,8.02515172 C1.96726316,6.05397931 2.78410526,4.26827241 4.42147368,2.66268621 C5.54357895,1.72413448 6.71094737,1.11215172 7.92094737,0.822996552 C9.11989474,0.574996552 10.2435789,0.451531034 11.2909474,0.451531034 L19.1914737,0.451531034 L16.7514737,1.89837586 L14.3162105,1.89837586 Z" id="Fill-1"></path>
                </g>
                <path d="M29.8951579,4.83359483 L25.7498947,4.83359483 L25.7498947,0.622939655 L23.7414737,0.622939655 L23.7414737,4.83359483 L19.5967368,4.83359483 L19.5967368,6.87318103 L23.7414737,6.87318103 L23.7414737,11.0822328 L25.7498947,11.0822328 L25.7498947,6.87318103 L29.8951579,6.87318103 L29.8951579,4.83359483 Z" id="Fill-4" sketch:type="MSShapeGroup"></path>
            </g>
            <g id="Group-3-+-Fill-4-Copy" sketch:type="MSLayerGroup" transform="translate(139.000000, 94.000000)" fill="#A3B3CE">
                <g id="Group-3" sketch:type="MSShapeGroup">
                    <path d="M10.3335789,13.2326172 C11.3741053,13.1930655 12.2398947,12.8130483 12.9330526,12.0936345 C13.2683158,11.5842724 13.4830526,11.0615483 13.5783158,10.5254621 C13.6351579,9.9883069 13.6651579,9.5388069 13.6651579,9.17161724 C13.6651579,7.59061724 13.2662105,5.99465172 12.4698947,4.38799655 C12.0951579,3.61727241 11.6035789,2.98872069 10.9941053,2.50554828 C10.3704211,2.04963448 9.65463158,1.80697931 8.84621053,1.78025517 C7.77515789,1.80697931 6.88568421,2.24472069 6.17515789,3.09454828 C5.57673684,3.9833931 5.28989474,4.97699655 5.31778947,6.07535862 C5.31778947,7.52647931 5.73410526,9.03478966 6.57094737,10.6045655 C6.97673684,11.3362724 7.49726316,11.9568069 8.13884211,12.4667034 C8.77884211,12.977669 9.51042105,13.2326172 10.3335789,13.2326172 L10.3335789,13.2326172 Z M15.8414737,24.9933759 C15.8414737,23.9741172 15.5146316,23.0879448 14.8609474,22.3316517 C14.1688421,21.6143759 13.0872632,20.7335483 11.6156842,19.6881 C11.3630526,19.6619103 11.0677895,19.6496172 10.7283158,19.6496172 C10.5272632,19.6244966 10.0109474,19.6496172 9.18094737,19.7271172 C8.36410526,19.8452379 7.52621053,20.0339103 6.67042105,20.2952724 C6.46936842,20.3738414 6.18726316,20.4919621 5.82305263,20.648031 C5.45778947,20.8174621 5.08726316,21.0595828 4.70884211,21.3727897 C4.34357895,21.6982897 4.03568421,22.1028931 3.78515789,22.5860655 C3.49410526,23.0954276 3.35147368,23.7090138 3.35147368,24.4262897 C3.35147368,25.8357207 3.97831579,26.9971517 5.23621053,27.9105828 C6.43252632,28.8234793 8.06673684,29.2932897 10.1430526,29.3200138 C12.0046316,29.2932897 13.4267368,28.8758586 14.4067368,28.0666517 C15.3635789,27.2697379 15.8414737,26.2462034 15.8414737,24.9933759 L15.8414737,24.9933759 Z M14.3162105,1.89837586 C14.5651579,2.05497931 14.8430526,2.28266897 15.1530526,2.58304828 C15.4504211,2.89625517 15.7414737,3.28268621 16.0267368,3.73806552 C16.3004211,4.16885862 16.5425263,4.67608276 16.7541053,5.26454828 C16.9277895,5.85087586 17.0141053,6.53661724 17.0141053,7.31963448 C16.9914737,8.75418621 16.6793684,9.90225517 16.0777895,10.7638414 C15.7841053,11.1812724 15.4725263,11.5661 15.1430526,11.9188586 C14.7772632,12.2694793 14.3893684,12.6297207 13.9783158,12.9947724 C13.7425263,13.2422379 13.5251579,13.5228414 13.3256842,13.8365828 C13.0904211,14.1626172 12.9725263,14.5399621 12.9725263,14.9707552 C12.9725263,15.3908586 13.0930526,15.7350655 13.3346316,16.0087207 C13.5393684,16.2700828 13.7388421,16.4988414 13.9325263,16.6944621 L15.2730526,17.8093931 C16.1056842,18.5026172 16.8356842,19.2631862 17.4635789,20.0985828 C18.0546316,20.9473414 18.3625263,22.0558586 18.3888421,23.424669 C18.3888421,25.3696517 17.542,27.0906862 15.8514737,28.5931172 C14.1004211,30.1463241 11.5698947,30.9475138 8.26410526,30.9998931 C5.49673684,30.9737034 3.43094737,30.3745483 2.06568421,29.204031 C0.689894737,28.1088759 -0.000105263158,26.8004621 -0.000105263158,25.2771862 C-0.000105263158,24.5358586 0.223052632,23.7068759 0.673052632,22.7955828 C1.10673684,21.8848241 1.89410526,21.0836345 3.03410526,20.3936172 C4.31252632,19.6528241 5.65673684,19.1562897 7.06515789,18.9088241 C8.46042105,18.7014448 9.61831579,18.5833241 10.5404211,18.557669 C10.2551579,18.1765828 10.0014737,17.7703759 9.77831579,17.3374448 C9.51831579,16.9178759 9.38936842,16.4122552 9.38936842,15.8232552 C9.38936842,15.4694276 9.43831579,15.1722552 9.53673684,14.9370828 C9.62357895,14.6869448 9.70515789,14.4592552 9.77831579,14.248669 C9.33042105,14.3005138 8.90621053,14.3267034 8.50989474,14.3267034 C6.40568421,14.3005138 4.80305263,13.6281345 3.69989474,12.311169 C2.54463158,11.0834621 1.96726316,9.65532414 1.96726316,8.02515172 C1.96726316,6.05397931 2.78410526,4.26827241 4.42147368,2.66268621 C5.54357895,1.72413448 6.71094737,1.11215172 7.92094737,0.822996552 C9.11989474,0.574996552 10.2435789,0.451531034 11.2909474,0.451531034 L19.1914737,0.451531034 L16.7514737,1.89837586 L14.3162105,1.89837586 Z" id="Fill-1"></path>
                </g>
                <path d="M29.8951579,4.83359483 L25.7498947,4.83359483 L25.7498947,0.622939655 L23.7414737,0.622939655 L23.7414737,4.83359483 L19.5967368,4.83359483 L19.5967368,6.87318103 L23.7414737,6.87318103 L23.7414737,11.0822328 L25.7498947,11.0822328 L25.7498947,6.87318103 L29.8951579,6.87318103 L29.8951579,4.83359483 Z" id="Fill-4" sketch:type="MSShapeGroup"></path>
            </g>
            <g id="Page-1" sketch:type="MSLayerGroup" transform="translate(363.000000, 17.000000)" stroke="#FFFFFF" stroke-width="2" stroke-linecap="round">
                <path d="M0,0 L21.781,0" id="Stroke-1" sketch:type="MSShapeGroup"></path>
                <path d="M0,5 L21.781,5" id="Stroke-3" sketch:type="MSShapeGroup"></path>
                <path d="M0,10 L21.781,10" id="Stroke-5" sketch:type="MSShapeGroup"></path>
            </g>
            <g id="Page-1-Copy-2" sketch:type="MSLayerGroup" transform="translate(407.000000, 61.000000)" stroke="#535A77" stroke-width="2" stroke-linecap="round">
                <path d="M0,0 L21.781,0" id="Stroke-1" sketch:type="MSShapeGroup"></path>
                <path d="M0,5 L21.781,5" id="Stroke-3" sketch:type="MSShapeGroup"></path>
                <path d="M0,10 L21.781,10" id="Stroke-5" sketch:type="MSShapeGroup"></path>
            </g>
            <g id="Page-1" sketch:type="MSLayerGroup" transform="translate(411.000000, 18.000000)" stroke="#FFFFFF" stroke-width="2" stroke-linecap="round">
                <path d="M0.532542857,4.93701429 L13.8641143,4.93701429" id="Stroke-1" sketch:type="MSShapeGroup"></path>
                <path d="M4.59552857,9 L0.532671429,4.93714286 L4.59552857,0.874285714" id="Stroke-3" sketch:type="MSShapeGroup"></path>
            </g>
            <g id="Page-1-Copy" sketch:type="MSLayerGroup" transform="translate(279.000000, 62.000000)" stroke="#535A77" stroke-width="2" stroke-linecap="round">
                <path d="M0.532542857,4.93701429 L13.8641143,4.93701429" id="Stroke-1" sketch:type="MSShapeGroup"></path>
                <path d="M4.59552857,9 L0.532671429,4.93714286 L4.59552857,0.874285714" id="Stroke-3" sketch:type="MSShapeGroup"></path>
            </g>
            <g id="Oval-49-+-?" sketch:type="MSLayerGroup" transform="translate(455.000000, 15.000000)">
                <circle id="Oval-49" stroke="#535A77" sketch:type="MSShapeGroup" cx="7" cy="7" r="7"></circle>
                <text id="?" sketch:type="MSTextLayer" font-family="Raleway" font-size="9" font-weight="420" fill="#535A77">
                    <tspan x="5" y="10">?</tspan>
                </text>
            </g>
            <g id="pin12-copy" sketch:type="MSLayerGroup" transform="translate(54.000000, 49.000000)" fill="#535A77">
                <path d="M11.9876945,8.09217571 C9.05995636,8.09217571 6.68622545,10.4817519 6.68622545,13.4290336 C6.68622545,16.3763152 9.05995636,18.7658915 11.9876945,18.7658915 C14.9154327,18.7658915 17.2891636,16.3763152 17.2891636,13.4290336 C17.2891636,10.4817519 14.9154327,8.09217571 11.9876945,8.09217571 L11.9876945,8.09217571 Z M11.9876945,16.3763152 C10.3854545,16.3763152 9.05995636,15.0619121 9.05995636,13.4290336 C9.05995636,11.796155 10.3656436,10.4817519 11.9876945,10.4817519 C13.6097455,10.4817519 14.9154327,11.796155 14.9154327,13.4290336 C14.9154327,15.0619121 13.5900218,16.3763152 11.9876945,16.3763152 L11.9876945,16.3763152 Z" id="Fill-1" sketch:type="MSShapeGroup"></path>
                <path d="M20.79072,4.02957106 C19.1883927,2.21755556 16.2804655,0.0469147287 11.6317964,0.0469147287 C3.99578182,0.0469147287 0,6.29966408 0,12.4732558 C0,20.5579638 10.9789964,33.0441344 11.4534982,33.5818966 C11.6713309,33.8406305 11.9876945,33.9998243 12.3242182,33.9998243 L12.3439418,33.9998243 C12.6801164,33.9998243 12.9770182,33.8406305 13.2143127,33.6017519 C13.3329164,33.4823566 15.9245673,30.6544703 18.5553164,26.6914057 C22.1556655,21.2749509 23.9754764,16.4758553 23.9754764,12.4530491 C23.9754764,9.38628424 22.8085527,6.31960724 20.79072,4.02957106 L20.79072,4.02957106 Z M12.3637527,30.9331473 C9.79191273,27.8266718 2.39354182,18.4076176 2.39354182,12.4533127 C2.39354182,7.63401034 5.30146909,2.43649096 11.6516073,2.43649096 C18.12,2.43649096 21.6017455,7.59421189 21.6017455,12.4533127 C21.6017455,19.4629354 14.8165527,28.0459587 12.3637527,30.9331473 L12.3637527,30.9331473 Z" id="Fill-2" sketch:type="MSShapeGroup"></path>
            </g>
            <polygon id="Triangle-1" fill="#FB2B63" sketch:type="MSShapeGroup" transform="translate(198.000000, 66.500000) rotate(-270.000000) translate(-198.000000, -66.500000) " points="198 64 203 69 193 69 "></polygon>
            <rect id="Rectangle-65-Copy-5" stroke="#A5AAC0" fill="#F9F9F9" sketch:type="MSShapeGroup" x="313" y="49" width="34" height="34" rx="2"></rect>
            <rect id="Rectangle-65-Copy-6" stroke="#A5AAC0" fill="#F9F9F9" sketch:type="MSShapeGroup" x="357" y="49" width="34" height="34" rx="2"></rect>
            <path d="M335.505174,63 L327.809726,70.6954479 L325,67.8857215" id="Page-1" stroke="#535A77" stroke-width="2" stroke-linecap="round" sketch:type="MSShapeGroup"></path>
            <rect id="Rectangle-1-Copy-16" sketch:type="MSShapeGroup" x="0" y="88" width="88" height="88"></rect>
            <g id="Group" sketch:type="MSLayerGroup" transform="translate(18.000000, 100.000000)">
                <g sketch:type="MSShapeGroup">
                    <path d="M0,1.49535303 C0,0.669492358 0.671413287,0 1.50557343,0 L39.6411342,0 L51.3157895,11.9273883 L51.3157895,63.4971307 C51.3157895,64.3271425 50.6482001,65 49.8077963,65 L1.50799316,65 C0.675151536,65 0,64.3354997 0,63.504647 L0,1.49535303 Z" id="Rectangle-28" stroke="#A5AAC0" stroke-width="2" fill="#F9F9F9"></path>
                    <path d="M39.6842105,0 L51.2952966,11.9453534 L39.7044933,11.9453534 L39.6842105,0 Z" id="Rectangle-29" stroke="#A5AAC0" stroke-width="2" fill="#E9EDF3"></path>
                    <path d="M5.81578947,16.4210526 L44.284001,16.4210526" id="Line" stroke="#E6E8F4" stroke-width="2" stroke-linecap="square"></path>
                    <path d="M5.81578947,20.5263158 L44.284001,20.5263158" id="Line" stroke="#E6E8F4" stroke-width="2" stroke-linecap="square"></path>
                    <path d="M5.81578947,24.6315789 L44.284001,24.6315789" id="Line" stroke="#E6E8F4" stroke-width="2" stroke-linecap="square"></path>
                    <path d="M5.81578947,28.7368421 L44.284001,28.7368421" id="Line" stroke="#E6E8F4" stroke-width="2" stroke-linecap="square"></path>
                    <path d="M5.81578947,32.8421053 L44.284001,32.8421053" id="Line" stroke="#E6E8F4" stroke-width="2" stroke-linecap="square"></path>
                    <path d="M5.81578947,36.9473684 L13.5036488,36.9473684" id="Line" stroke="#E6E8F4" stroke-width="2" stroke-linecap="square"></path>
                    <path d="M5.81578947,43.7894737 L44.284001,43.7894737" id="Line" stroke="#E6E8F4" stroke-width="2" stroke-linecap="square"></path>
                    <path d="M5.81578947,48.5789474 L44.284001,48.5789474" id="Line" stroke="#E6E8F4" stroke-width="2" stroke-linecap="square"></path>
                    <path d="M5.81578947,53.3684211 L44.284001,53.3684211" id="Line" stroke="#E6E8F4" stroke-width="2" stroke-linecap="square"></path>
                    <path d="M5.81578947,58.1578947 L20.5422189,58.1578947" id="Line" stroke="#E6E8F4" stroke-width="2" stroke-linecap="square"></path>
                    <g id="Triangle-1-+-Rectangle-582" transform="translate(16.842105, 25.368421)" fill="#A5AAC0">
                        <polygon id="Triangle-1" points="8.44976077 0 16.6495215 7.28867624 0.25 7.28867624 "></polygon>
                        <rect id="Rectangle-582" x="6.35980861" y="6.28867624" width="4.17990431" height="11.6108453"></rect>
                    </g>
                </g>
            </g>
            <g id="Page-1-+-Oval-4" sketch:type="MSLayerGroup" transform="translate(225.000000, 93.000000)" stroke="#5AA30A" stroke-width="2">
                <path d="M24.798997,11.3333333 L13.8971124,22.2352179 L9.91666667,18.2547721" id="Page-1" stroke-linecap="round" sketch:type="MSShapeGroup"></path>
                <circle id="Oval-4" sketch:type="MSShapeGroup" cx="17" cy="17" r="17"></circle>
            </g>
        </g>
    </g>
</svg>