<?xml version="1.0" encoding="UTF-8" standalone="no"?>
<svg width="32px" height="30px" viewBox="0 0 32 30" version="1.1" xmlns="http://www.w3.org/2000/svg" xmlns:xlink="http://www.w3.org/1999/xlink" xmlns:sketch="http://www.bohemiancoding.com/sketch/ns">
    <!-- Generator: Sketch 3.4.4 (17249) - http://www.bohemiancoding.com/sketch -->
    <title>Page 1</title>
    <desc>Created with Sketch.</desc>
    <defs></defs>
    <g id="Page-1" stroke="none" stroke-width="1" fill="none" fill-rule="evenodd" sketch:type="MSPage">
        <g id="phocus_sprite" sketch:type="MSLayerGroup" transform="translate(-319.000000, -96.000000)" fill="#A3B3CE">
            <g id="Page-1" sketch:type="MSShapeGroup">
                <g id="phocus_sprite">
                    <g id="Page-1" transform="translate(319.000000, 96.000000)">
                        <path d="M0.4,30 L7.001,30 L7.001,9.9 L0.4,9.9 L0.4,30 Z" id="Fill-1"></path>
                        <g id="Group-6">
                            <path d="M3.7,7.2 L3.7,7.2 C1.4,7.2 0,5.6 0,3.7 C0,1.8 1.6,0.2 3.7,0.2 C6,0.2 7.4,1.8 7.4,3.7 C7.6,5.6 6.1,7.2 3.7,7.2" id="Fill-2"></path>
                            <path d="M31.2,30 L24.6,30 L24.6,19.3 C24.6,16.6 23.6,14.8 21.3,14.8 C19.5,14.8 18.4,16 17.8,17.3 C17.6,17.5 17.6,18.1 17.6,18.7 L17.6,30 L10.8,30 L10.8,9.9 L17.6,9.9 L17.6,12.8 C18.6,11.4 20.1,9.5 23.6,9.5 C28.1,9.5 31.2,12.4 31.2,18.5 L31.2,30 Z" id="Fill-4"></path>
                        </g>
                    </g>
                </g>
            </g>
        </g>
    </g>
</svg>