<?xml version="1.0" encoding="UTF-8" standalone="no"?>
<svg width="94px" height="66px" viewBox="0 0 94 66" version="1.1" xmlns="http://www.w3.org/2000/svg" xmlns:xlink="http://www.w3.org/1999/xlink" xmlns:sketch="http://www.bohemiancoding.com/sketch/ns">
    <!-- Generator: Sketch 3.4.3 (16044) - http://www.bohemiancoding.com/sketch -->
    <title>phocus_logo_color</title>
    <desc>Created with Sketch.</desc>
    <defs>
        <path id="path-1" d="M0,0.432473684 L93.7522346,0.432473684 L93.7522346,66 L0,66"></path>
        <path id="path-3" d="M0,0.432473684 L93.7522346,0.432473684 L93.7522346,66 L0,66 L0,0.432473684 Z"></path>
    </defs>
    <g id="Provider-dashboard" stroke="none" stroke-width="1" fill="none" fill-rule="evenodd" sketch:type="MSPage">
        <g id="phocus_logo_color" sketch:type="MSLayerGroup">
            <path d="M78.6654086,53.5199789 C77.8687296,53.5199789 77.2687543,52.9034 77.2687543,52.0853474 C77.2687543,51.2557158 77.8687296,50.6298737 78.6654086,50.6298737 C79.4615074,50.6298737 80.062063,51.2557158 80.062063,52.0853474 C80.062063,52.9034 79.4615074,53.5199789 78.6654086,53.5199789" id="Fill-1" fill="#FFFFFF" sketch:type="MSShapeGroup"></path>
            <path d="M2.46378642,59.2689842 L5.65804568,59.2689842 C7.95524321,59.2689842 9.11979877,58.3004053 9.11979877,56.3904579 C9.11979877,54.5482474 7.95524321,53.6144053 5.65804568,53.6144053 L2.46378642,53.6144053 L2.46378642,59.2689842 Z M5.80246915e-05,65.8157211 L5.80246915e-05,51.4016684 L5.76074938,51.4016684 C9.34203333,51.4016684 11.4808235,53.2438789 11.4808235,56.3290895 C11.4808235,59.5549842 9.34203333,61.4811421 5.76074938,61.4811421 L2.46378642,61.4811421 L2.46378642,65.8157211 L5.80246915e-05,65.8157211 Z" id="Fill-3" fill="#FFFFFF" sketch:type="MSShapeGroup"></path>
            <path d="M20.9317691,65.8156053 L20.9317691,59.6561842 C20.9317691,58.0079211 19.9534728,57.0242895 18.3142753,57.0242895 C16.4516827,57.0433947 15.2024111,58.4068158 15.2024111,60.4163421 L15.2024111,65.8156053 L12.7996086,65.8156053 L12.7996086,50.5603421 C14.1521642,50.7270789 15.2024111,51.8797632 15.2024111,53.2738684 L15.2024111,56.7353947 L15.7907815,56.0846579 C16.5799173,55.2127632 17.7409914,54.7704474 19.2403494,54.7704474 C21.8038802,54.7704474 23.3339914,56.3509737 23.3339914,58.9990789 L23.3339914,65.8156053 L20.9317691,65.8156053 Z" id="Fill-5" fill="#FFFFFF" sketch:type="MSShapeGroup"></path>
            <path d="M30.5047407,56.8390263 C28.5081111,56.8390263 27.1671605,58.2516579 27.1671605,60.3549737 C27.1671605,62.4698684 28.5081111,63.8906053 30.5047407,63.8906053 C32.4891852,63.8906053 33.8220123,62.4698684 33.8220123,60.3549737 C33.8220123,58.2516579 32.4891852,56.8390263 30.5047407,56.8390263 M30.5047407,65.8978158 C27.1248025,65.8978158 24.764358,63.6098158 24.764358,60.3341316 C24.764358,57.0578684 27.1248025,54.7704474 30.5047407,54.7704474 C33.8724938,54.7704474 36.2248148,57.0578684 36.2248148,60.3341316 C36.2248148,63.6098158 33.8724938,65.8978158 30.5047407,65.8978158" id="Fill-7" fill="#FFFFFF" sketch:type="MSShapeGroup"></path>
            <path d="M43.0995802,65.8975842 C39.8409136,65.8975842 37.5646049,63.6182684 37.5646049,60.3547421 C37.5646049,57.0663211 39.8409136,54.7702158 43.0995802,54.7702158 C45.0434074,54.7702158 46.6141358,55.3902684 47.6417531,56.5637947 L47.651037,56.5747947 L46.332716,58.1211632 L46.3193704,58.1072684 C45.5348765,57.3042684 44.4846296,56.8793211 43.282358,56.8793211 L43.2034444,56.8799 C41.2996543,56.8799 39.9674074,58.3087421 39.9674074,60.3547421 C39.9674074,62.4001632 41.2979136,63.8290053 43.202284,63.8290053 C44.5734074,63.8290053 45.686321,63.3768474 46.4214938,62.5205842 L46.433679,62.5061105 L47.7757901,63.8446368 L47.7665062,63.8567947 C46.7470123,65.1918474 45.1339259,65.8975842 43.0995802,65.8975842" id="Fill-9" fill="#FFFFFF" sketch:type="MSShapeGroup"></path>
            <path d="M53.5518,65.8975842 C51.0254049,65.8970053 49.5179235,64.3164789 49.5179235,61.6695316 L49.5179235,54.8732684 C50.8698988,55.0400053 51.9201457,56.1938474 51.9201457,57.5873737 L51.9201457,61.0118474 C51.9201457,62.6606895 52.8676889,63.6443211 54.4552444,63.6443211 C56.2458864,63.6055316 57.443516,62.2421105 57.443516,60.2516895 L57.443516,54.8524263 L59.8463185,54.8524263 L59.8463185,65.8153737 L57.443516,65.8153737 L57.443516,63.9494263 L56.8539852,64.6059526 C56.1002444,65.4460053 54.9890716,65.8802158 53.5518,65.8975842" id="Fill-11" fill="#FFFFFF" sketch:type="MSShapeGroup"></path>
            <path d="M66.4159321,65.8975842 C64.7326358,65.8975842 63.0394753,65.3134263 61.9985123,64.3726368 L61.9886481,64.3639526 L62.8485741,62.6479526 L62.8659815,62.6624263 C63.760142,63.4584789 65.2624012,64.0136895 66.5186358,64.0136895 C68.119537,64.0136895 68.2924506,63.2072158 68.2924506,62.8610053 C68.2924506,61.9121105 67.2439444,61.5989 66.0300679,61.2364789 C64.3926111,60.7478474 62.5369815,60.1932158 62.5491667,57.9301105 C62.5491667,55.9981632 64.1396235,54.7505316 66.6010309,54.7505316 C68.0197346,54.7505316 69.4552654,55.1662158 70.4405247,55.8626895 L70.4527099,55.8707947 L69.5730556,57.6475842 L69.5568086,57.6377421 C68.6069444,57.0524263 67.3739198,56.6743737 66.4159321,56.6743737 C65.033784,56.6743737 64.827216,57.3459526 64.827216,57.7460053 C64.827216,58.5704263 65.8339444,58.8709 66.9990802,59.2182684 C68.6237716,59.7028474 70.6459321,60.3055316 70.6337469,62.6346368 C70.6337469,64.6175316 68.9783025,65.8975842 66.4159321,65.8975842" id="Fill-13" fill="#FFFFFF" sketch:type="MSShapeGroup"></path>
            <path d="M73.498716,66 C72.749037,66 72.1832963,65.4007895 72.1832963,64.6064737 C72.1832963,63.8353158 72.749037,63.2540526 73.498716,63.2540526 C74.2478148,63.2540526 74.8129753,63.8353158 74.8129753,64.6064737 C74.8129753,65.4007895 74.2478148,66 73.498716,66" id="Fill-15" fill="#FFFFFF" sketch:type="MSShapeGroup"></path>
            <path d="M77.4741037,65.8156053 L77.4741037,55.3465 C78.8150543,55.5126579 79.8565975,56.6572368 79.8565975,58.0397632 L79.8565975,65.8156053 L77.4741037,65.8156053 Z" id="Fill-17" fill="#FFFFFF" sketch:type="MSShapeGroup"></path>
            <g id="Group-21">
                <mask id="mask-2" sketch:name="Clip 20" fill="white">
                    <use xlink:href="#path-1"></use>
                </mask>
                <g id="Clip-20"></g>
                <path d="M88.0322185,56.8390263 C86.0355889,56.8390263 84.6946383,58.2516579 84.6946383,60.3549737 C84.6946383,62.4698684 86.0355889,63.8906053 88.0322185,63.8906053 C90.016663,63.8906053 91.3494901,62.4698684 91.3494901,60.3549737 C91.3494901,58.2516579 90.016663,56.8390263 88.0322185,56.8390263 M88.0322185,65.8978158 C84.6522802,65.8978158 82.2918358,63.6098158 82.2918358,60.3341316 C82.2918358,57.0578684 84.6522802,54.7704474 88.0322185,54.7704474 C91.3999716,54.7704474 93.7522926,57.0578684 93.7522926,60.3341316 C93.7522926,63.6098158 91.3999716,65.8978158 88.0322185,65.8978158" id="Fill-19" fill="#FFFFFF" sketch:type="MSShapeGroup" mask="url(#mask-2)"></path>
            </g>
            <path d="M43.9314963,24.7975316 L28.6936321,24.7975316 L37.7936444,36.1831105 C40.0444222,32.5062158 42.3160889,28.4640053 43.9314963,24.7975316" id="Fill-22" fill="#FFFFFF" sketch:type="MSShapeGroup"></path>
            <path d="M22.4691494,14.1214526 L13.6824704,18.3431368 C14.2162975,21.5881368 16.1694086,25.9447158 18.5478407,30.3250316 L22.4691494,14.1214526 Z" id="Fill-24" fill="#FFFFFF" sketch:type="MSShapeGroup"></path>
            <path d="M27.5318037,9.44315263 L18.4515198,5.07962632 C15.545063,7.91531053 13.698137,11.8226263 13.5484333,16.1618368 L27.5318037,9.44315263 Z" id="Fill-26" fill="#FFFFFF" sketch:type="MSShapeGroup"></path>
            <g id="Group-30">
                <mask id="mask-4" sketch:name="Clip 29" fill="white">
                    <use xlink:href="#path-3"></use>
                </mask>
                <g id="Clip-29"></g>
                <path d="M34.5446679,10.5668895 L32.5103222,0.647784211 C31.649816,0.508257895 30.768421,0.432415789 29.8690383,0.432415789 C26.2210259,0.432415789 22.8532728,1.62678421 20.1342358,3.64267895 L34.5446679,10.5668895 Z" id="Fill-28" fill="#FFFFFF" sketch:type="MSShapeGroup" mask="url(#mask-4)"></path>
            </g>
            <path d="M22.9309679,20.8326684 L20.0047827,32.9234053 C22.8862889,37.9185632 26.0614,42.6543526 28.0110296,45.4651421 C28.9098321,46.7619842 30.8275481,46.7619842 31.7263506,45.4651421 C32.9924494,43.6403 34.7761284,41.0008789 36.6596099,38.0094579 L22.9309679,20.8326684 Z" id="Fill-31" fill="#FFFFFF" sketch:type="MSShapeGroup"></path>
            <path d="M37.8000272,16.3454211 L44.0098296,8.57594737 C41.9679407,5.05884211 38.6500889,2.37252632 34.6841012,1.15326316 L37.8000272,16.3454211 Z" id="Fill-33" fill="#FFFFFF" sketch:type="MSShapeGroup"></path>
            <path d="M44.9982222,10.5843737 L35.2552963,22.7741105 L44.7678642,22.7741105 C45.6562222,20.4612158 46.2039753,18.3723737 46.2039753,16.7310579 C46.2039753,14.5559526 45.7734321,12.4815842 44.9982222,10.5843737" id="Fill-35" fill="#FFFFFF" sketch:type="MSShapeGroup"></path>
        </g>
    </g>
</svg>