<svg id="Layer_1" data-name="Layer 1" xmlns="http://www.w3.org/2000/svg" viewBox="0 0 102.01 157.7"><defs><style>.cls-1,.cls-4{fill:#f5f5f5;}.cls-1,.cls-2,.cls-3,.cls-4{stroke:#555a78;stroke-miterlimit:10;}.cls-1,.cls-2{stroke-width:2px;}.cls-2,.cls-3{fill:#fff;}.cls-3,.cls-4{stroke-width:1.5px;}</style></defs><title>PhocusIcons</title><rect class="cls-1" x="1" y="1" width="87.21" height="125.04"/><rect class="cls-2" x="17.68" y="1.16" width="53.84" height="125.04"/><rect class="cls-3" x="5.2" y="6.83" width="8.28" height="8.28"/><rect class="cls-3" x="5.2" y="24.34" width="8.28" height="8.28"/><rect class="cls-3" x="5.2" y="41.86" width="8.28" height="8.28"/><rect class="cls-3" x="5.2" y="59.38" width="8.28" height="8.28"/><rect class="cls-3" x="5.2" y="76.9" width="8.28" height="8.28"/><rect class="cls-3" x="5.2" y="94.42" width="8.28" height="8.28"/><rect class="cls-3" x="5.2" y="111.94" width="8.28" height="8.28"/><rect class="cls-4" x="17.68" y="39.9" width="53.84" height="43.24"/><rect class="cls-3" x="75.73" y="6.83" width="8.28" height="8.28"/><rect class="cls-3" x="75.73" y="24.34" width="8.28" height="8.28"/><rect class="cls-3" x="75.73" y="41.86" width="8.28" height="8.28"/><rect class="cls-3" x="75.73" y="59.38" width="8.28" height="8.28"/><rect class="cls-3" x="75.73" y="76.9" width="8.28" height="8.28"/><rect class="cls-3" x="75.73" y="94.42" width="8.28" height="8.28"/><rect class="cls-3" x="75.73" y="111.94" width="8.28" height="8.28"/><polygon class="cls-3" points="53.62 39.9 29.8 11.26 17.68 26.54 17.68 39.9 53.62 39.9"/><polygon class="cls-3" points="45.48 29.78 59.2 14.56 71.52 25.37 71.52 39.9 53.62 39.9 45.48 29.78"/><circle class="cls-3" cx="43.85" cy="11.69" r="4.39"/><polygon class="cls-3" points="53.62 83.14 29.8 54.5 17.68 69.78 17.68 83.14 53.62 83.14"/><polygon class="cls-3" points="45.48 73.02 59.2 57.8 71.52 68.61 71.52 83.14 53.62 83.14 45.48 73.02"/><circle class="cls-3" cx="43.85" cy="54.93" r="4.39"/><polygon class="cls-3" points="53.62 125.55 29.8 96.91 17.68 112.19 17.68 125.55 53.62 125.55"/><polygon class="cls-3" points="45.48 115.43 59.2 100.21 71.52 111.02 71.52 125.55 53.62 125.55 45.48 115.43"/><circle class="cls-3" cx="43.85" cy="97.34" r="4.39"/><path class="cls-2" d="M94.1,96.36a6.9,6.9,0,0,0-6.9,6.9V99.87a6.9,6.9,0,0,0-13.8,0V96.48a6.9,6.9,0,1,0-13.8,0V67.93a6.9,6.9,0,0,0-13.8,0v53l-6.61-6.61A6.9,6.9,0,1,0,29.43,124l23,23a27.6,27.6,0,0,0,48.56-18V103.26A6.9,6.9,0,0,0,94.1,96.36Z"/></svg>