<?xml version="1.0" encoding="utf-8"?>
<!-- Generator: Adobe Illustrator 19.2.0, SVG Export Plug-In . SVG Version: 6.00 Build 0)  -->
<svg version="1.1" id="Layer_1" xmlns="http://www.w3.org/2000/svg" xmlns:xlink="http://www.w3.org/1999/xlink" x="0px" y="0px"
	 viewBox="0 0 180.1 160.7" enable-background="new 0 0 180.1 160.7" xml:space="preserve">
<g>
	<g>
		<path fill="#FFFFFF" stroke="#555A78" stroke-width="1.9207" stroke-miterlimit="10" d="M96.4,1C69,1,46.8,16.8,46.8,36.4
			c0,10.1,5.9,19.2,15.4,25.6l-2.8,16.5l16.8-9.8c6.2,2,13,3.1,20.2,3.1c27.4,0,49.6-15.9,49.6-35.4S123.8,1,96.4,1z"/>
		<polygon fill="#F5F5F5" stroke="#555A78" stroke-width="1.5" stroke-miterlimit="10" points="67.9,42.6 61.5,46 62.7,38.8 
			57.5,33.7 64.7,32.7 67.9,26.1 71.2,32.7 78.4,33.7 73.2,38.8 74.4,46 		"/>
		<polygon fill="#F5F5F5" stroke="#555A78" stroke-width="1.5" stroke-miterlimit="10" points="96.4,42.6 90,46 91.2,38.8 86,33.7 
			93.2,32.7 96.4,26.1 99.7,32.7 106.9,33.7 101.7,38.8 102.9,46 		"/>
		<polygon fill="#F5F5F5" stroke="#555A78" stroke-width="1.5" stroke-miterlimit="10" points="124.9,42.6 118.5,46 119.7,38.8 
			114.5,33.7 121.7,32.7 124.9,26.1 128.2,32.7 135.4,33.7 130.2,38.8 131.4,46 		"/>
	</g>
	<path fill="#FFFFFF" stroke="#555A78" stroke-width="2" stroke-miterlimit="10" d="M12.9,108.6V84.4c0-3.3-2.7-6-6-6s-6,2.7-6,6
		c0,0,0,3.2,0,29.9c0,32.6,1.8,45.5,23.6,45.5c17.4,0,39.4,0.2,39.4-26.4c0,0,0-2.5,0-7.3c0-3.3-2.7-6-6-6s-6,2.7-6,6l0,0
		c0,3.3-2.7,6-6,6s-6-2.7-6-6v-11.9c0-3.3,2.7-6,6-6s6,2.7,6,6l0,0c0,3.3,2.7,6,6,6s6-2.7,6-6v-3.8c0-18.2-27.2-20.1-27.2-7.9V73.7
		c0-3.3-2.7-6-6-6s-6,2.7-6,6v32.4V77.8c0-3.3-2.7-6-6-6s-6,2.7-6,6V108.6z"/>
	<line fill="none" stroke="#555A78" stroke-width="2" stroke-miterlimit="10" x1="24.8" y1="77.8" x2="24.8" y2="106.1"/>
	<g>
		<g>
			<path fill="#F5F5F5" stroke="#555A78" stroke-width="2" stroke-miterlimit="10" d="M176.8,129.5H104c-1.3,0-2.3-1-2.3-2.3V85.7
				c0-1.3,1-2.3,2.3-2.3h72.8c1.3,0,2.3,1,2.3,2.3v41.5C179.1,128.4,178.1,129.5,176.8,129.5z"/>
			<rect x="101.7" y="93.4" fill="#555A78" width="77.4" height="10"/>
		</g>
		<path fill="#FFFFFF" stroke="#555A78" stroke-width="2" stroke-miterlimit="10" d="M166.6,144H93.8c-1.3,0-2.3-1-2.3-2.3V99.5
			c0-1.3,1-2.3,2.3-2.3h72.8c1.3,0,2.3,1,2.3,2.3v42.2C168.9,143,167.9,144,166.6,144z"/>
		<g>
			<rect x="98.4" y="114" fill="#F5F5F5" stroke="#555A78" stroke-width="1.5" stroke-miterlimit="10" width="13.3" height="13.3"/>
			<line fill="none" stroke="#555A78" stroke-width="1.1509" stroke-miterlimit="10" x1="102.6" y1="114" x2="102.6" y2="127.3"/>
			<line fill="none" stroke="#555A78" stroke-width="1.5" stroke-miterlimit="10" x1="111.7" y1="118.4" x2="102.6" y2="118.4"/>
			<line fill="none" stroke="#555A78" stroke-width="1.5" stroke-miterlimit="10" x1="111.7" y1="122.8" x2="102.6" y2="122.8"/>
		</g>
		<g>
			<line fill="none" stroke="#555A78" stroke-width="2" stroke-miterlimit="10" x1="96.8" y1="135.9" x2="110.5" y2="135.9"/>
			<line fill="none" stroke="#555A78" stroke-width="2" stroke-miterlimit="10" x1="114.5" y1="135.9" x2="128.2" y2="135.9"/>
			<line fill="none" stroke="#555A78" stroke-width="2" stroke-miterlimit="10" x1="132.2" y1="135.9" x2="145.9" y2="135.9"/>
			<line fill="none" stroke="#555A78" stroke-width="2" stroke-miterlimit="10" x1="149.8" y1="135.9" x2="163.6" y2="135.9"/>
		</g>
		<rect x="98.6" y="103.7" fill="#F5F5F5" stroke="#555A78" stroke-width="1.5" stroke-miterlimit="10" width="43.5" height="5.4"/>
		<circle fill="#F5F5F5" stroke="#555A78" stroke-width="1.5" stroke-miterlimit="10" cx="158.5" cy="110" r="4.3"/>
		<rect x="154.7" y="119.6" fill="#F5F5F5" stroke="#555A78" stroke-width="1.5" stroke-miterlimit="10" width="7.6" height="7.6"/>
	</g>
</g>
</svg>
