<svg id="Layer_1" data-name="Layer 1" xmlns="http://www.w3.org/2000/svg" viewBox="0 0 217.4 99.07"><defs><style>.cls-1,.cls-3{fill:#fff;}.cls-1,.cls-2,.cls-3{stroke:#555a78;stroke-miterlimit:10;}.cls-1,.cls-2{stroke-width:2px;}.cls-2{fill:#f5f5f5;}.cls-3{stroke-width:1.88px;}</style></defs><title>PhocusIcons</title><rect class="cls-1" x="110.57" y="19.43" width="102.91" height="67.73" transform="translate(5.44 -14.33) rotate(5.15)"/><rect class="cls-2" x="115.85" y="24.7" width="92.36" height="57.17" transform="translate(5.44 -14.33) rotate(5.15)"/><rect class="cls-1" x="98.99" y="30.34" width="102.91" height="67.73"/><rect class="cls-2" x="104.27" y="35.62" width="92.36" height="57.17"/><polygon class="cls-1" points="168.04 92.8 126.81 47.05 104.27 71.46 104.27 92.8 168.04 92.8"/><polygon class="cls-1" points="153.45 76.63 176.95 52.33 196.63 69.59 196.63 92.8 168.04 92.8 153.45 76.63"/><circle class="cls-1" cx="152.43" cy="51.74" r="7.01"/><polyline class="cls-1" points="32.97 8.79 35.97 1 73.75 1 76.75 8.38"/><polyline class="cls-2" points="4.62 8.79 4.62 4.7 18.8 4.7 18.8 8.79"/><rect class="cls-1" x="1" y="8.54" width="107.72" height="72.87"/><circle class="cls-2" cx="54.86" cy="44.98" r="31.89"/><circle class="cls-1" cx="54.86" cy="44.98" r="21.97"/><rect class="cls-3" x="91.67" y="12.77" width="14.17" height="7.09"/><line class="cls-3" x1="0.62" y1="33.27" x2="24.7" y2="33.27"/><line class="cls-3" x1="85.01" y1="33.27" x2="109.09" y2="33.27"/></svg>